<mxfile host="app.diagrams.net" modified="2023-11-02T06:48:27.165Z" agent="Mozilla/5.0 (Windows NT 10.0; Win64; x64) AppleWebKit/537.36 (KHTML, like Gecko) Chrome/118.0.0.0 Whale/3.23.214.10 Safari/537.36" etag="RSYWOIoO0c_vtPqSQZln" version="22.0.8" type="device">
  <diagram name="페이지-1" id="D57Rc6TfMnEeDpuV9hIH">
    <mxGraphModel dx="1199" dy="752" grid="1" gridSize="10" guides="1" tooltips="1" connect="1" arrows="1" fold="1" page="1" pageScale="1" pageWidth="827" pageHeight="1169" math="0" shadow="0">
      <root>
        <mxCell id="0" />
        <mxCell id="1" parent="0" />
        <mxCell id="Go99mi-lMQuyiL-y5bwb-4" value="&amp;lt;&amp;lt;abstarct??&amp;gt;&amp;gt;&lt;br&gt;Tower" style="swimlane;fontStyle=1;align=center;verticalAlign=top;childLayout=stackLayout;horizontal=1;startSize=50;horizontalStack=0;resizeParent=1;resizeParentMax=0;resizeLast=0;collapsible=1;marginBottom=0;whiteSpace=wrap;html=1;fillStyle=auto;strokeColor=default;strokeWidth=2;spacingTop=0;spacingBottom=0;spacing=2;fontFamily=Helvetica;fontSize=14;fontColor=default;fillColor=default;" parent="1" vertex="1">
          <mxGeometry x="250" y="80" width="260" height="388" as="geometry">
            <mxRectangle x="250" y="150" width="80" height="30" as="alternateBounds" />
          </mxGeometry>
        </mxCell>
        <mxCell id="gAw4fXE5N5joj9is8AC2-28" value="+ id : int" style="text;strokeColor=none;fillColor=none;align=left;verticalAlign=top;spacingLeft=4;spacingRight=4;overflow=hidden;rotatable=0;points=[[0,0.5],[1,0.5]];portConstraint=eastwest;whiteSpace=wrap;html=1;fontSize=14;fontFamily=Helvetica;fontColor=default;" vertex="1" parent="Go99mi-lMQuyiL-y5bwb-4">
          <mxGeometry y="50" width="260" height="22" as="geometry" />
        </mxCell>
        <mxCell id="Go99mi-lMQuyiL-y5bwb-26" value="+ level : int" style="text;strokeColor=none;fillColor=none;align=left;verticalAlign=top;spacingLeft=4;spacingRight=4;overflow=hidden;rotatable=0;points=[[0,0.5],[1,0.5]];portConstraint=eastwest;whiteSpace=wrap;html=1;fontSize=14;fontFamily=Helvetica;fontColor=default;" parent="Go99mi-lMQuyiL-y5bwb-4" vertex="1">
          <mxGeometry y="72" width="260" height="22" as="geometry" />
        </mxCell>
        <mxCell id="Go99mi-lMQuyiL-y5bwb-33" value="- type : TowerType" style="text;strokeColor=none;fillColor=none;align=left;verticalAlign=top;spacingLeft=4;spacingRight=4;overflow=hidden;rotatable=0;points=[[0,0.5],[1,0.5]];portConstraint=eastwest;whiteSpace=wrap;html=1;fontSize=14;fontFamily=Helvetica;fontColor=default;" parent="Go99mi-lMQuyiL-y5bwb-4" vertex="1">
          <mxGeometry y="94" width="260" height="26" as="geometry" />
        </mxCell>
        <mxCell id="gAw4fXE5N5joj9is8AC2-29" value="- attackType : AttackType" style="text;strokeColor=none;fillColor=none;align=left;verticalAlign=top;spacingLeft=4;spacingRight=4;overflow=hidden;rotatable=0;points=[[0,0.5],[1,0.5]];portConstraint=eastwest;whiteSpace=wrap;html=1;fontSize=14;fontFamily=Helvetica;fontColor=default;" vertex="1" parent="Go99mi-lMQuyiL-y5bwb-4">
          <mxGeometry y="120" width="260" height="26" as="geometry" />
        </mxCell>
        <mxCell id="Go99mi-lMQuyiL-y5bwb-5" value="- atk : float" style="text;strokeColor=none;fillColor=none;align=left;verticalAlign=top;spacingLeft=4;spacingRight=4;overflow=hidden;rotatable=0;points=[[0,0.5],[1,0.5]];portConstraint=eastwest;whiteSpace=wrap;html=1;fontSize=14;fontFamily=Helvetica;fontColor=default;" parent="Go99mi-lMQuyiL-y5bwb-4" vertex="1">
          <mxGeometry y="146" width="260" height="26" as="geometry" />
        </mxCell>
        <mxCell id="Go99mi-lMQuyiL-y5bwb-8" value="- atkRange : float" style="text;strokeColor=none;fillColor=none;align=left;verticalAlign=top;spacingLeft=4;spacingRight=4;overflow=hidden;rotatable=0;points=[[0,0.5],[1,0.5]];portConstraint=eastwest;whiteSpace=wrap;html=1;fontSize=14;fontFamily=Helvetica;fontColor=default;" parent="Go99mi-lMQuyiL-y5bwb-4" vertex="1">
          <mxGeometry y="172" width="260" height="26" as="geometry" />
        </mxCell>
        <mxCell id="Go99mi-lMQuyiL-y5bwb-9" value="- atkSpeed : float" style="text;strokeColor=none;fillColor=none;align=left;verticalAlign=top;spacingLeft=4;spacingRight=4;overflow=hidden;rotatable=0;points=[[0,0.5],[1,0.5]];portConstraint=eastwest;whiteSpace=wrap;html=1;fontSize=14;fontFamily=Helvetica;fontColor=default;" parent="Go99mi-lMQuyiL-y5bwb-4" vertex="1">
          <mxGeometry y="198" width="260" height="26" as="geometry" />
        </mxCell>
        <mxCell id="Go99mi-lMQuyiL-y5bwb-46" value="- upgrade : int" style="text;strokeColor=none;fillColor=none;align=left;verticalAlign=top;spacingLeft=4;spacingRight=4;overflow=hidden;rotatable=0;points=[[0,0.5],[1,0.5]];portConstraint=eastwest;whiteSpace=wrap;html=1;fontSize=14;fontFamily=Helvetica;fontColor=default;" parent="Go99mi-lMQuyiL-y5bwb-4" vertex="1">
          <mxGeometry y="224" width="260" height="26" as="geometry" />
        </mxCell>
        <mxCell id="Go99mi-lMQuyiL-y5bwb-47" value="- upgradeMax : int" style="text;strokeColor=none;fillColor=none;align=left;verticalAlign=top;spacingLeft=4;spacingRight=4;overflow=hidden;rotatable=0;points=[[0,0.5],[1,0.5]];portConstraint=eastwest;whiteSpace=wrap;html=1;fontSize=14;fontFamily=Helvetica;fontColor=default;" parent="Go99mi-lMQuyiL-y5bwb-4" vertex="1">
          <mxGeometry y="250" width="260" height="26" as="geometry" />
        </mxCell>
        <mxCell id="Go99mi-lMQuyiL-y5bwb-17" value="- target : Enemy" style="text;strokeColor=none;fillColor=none;align=left;verticalAlign=top;spacingLeft=4;spacingRight=4;overflow=hidden;rotatable=0;points=[[0,0.5],[1,0.5]];portConstraint=eastwest;whiteSpace=wrap;html=1;fontSize=14;fontFamily=Helvetica;fontColor=default;" parent="Go99mi-lMQuyiL-y5bwb-4" vertex="1">
          <mxGeometry y="276" width="260" height="26" as="geometry" />
        </mxCell>
        <mxCell id="Go99mi-lMQuyiL-y5bwb-19" value="- missle : GameObject" style="text;strokeColor=none;fillColor=none;align=left;verticalAlign=top;spacingLeft=4;spacingRight=4;overflow=hidden;rotatable=0;points=[[0,0.5],[1,0.5]];portConstraint=eastwest;whiteSpace=wrap;html=1;fontSize=14;fontFamily=Helvetica;fontColor=default;" parent="Go99mi-lMQuyiL-y5bwb-4" vertex="1">
          <mxGeometry y="302" width="260" height="26" as="geometry" />
        </mxCell>
        <mxCell id="Go99mi-lMQuyiL-y5bwb-6" value="" style="line;strokeWidth=1;fillColor=none;align=left;verticalAlign=middle;spacingTop=-1;spacingLeft=3;spacingRight=3;rotatable=0;labelPosition=right;points=[];portConstraint=eastwest;strokeColor=inherit;fillStyle=auto;spacingBottom=0;spacing=2;fontFamily=Helvetica;fontSize=14;fontColor=default;html=1;" parent="Go99mi-lMQuyiL-y5bwb-4" vertex="1">
          <mxGeometry y="328" width="260" height="8" as="geometry" />
        </mxCell>
        <mxCell id="Go99mi-lMQuyiL-y5bwb-11" value="# Search(atkRange : float) : Enemy" style="text;strokeColor=none;fillColor=none;align=left;verticalAlign=top;spacingLeft=4;spacingRight=4;overflow=hidden;rotatable=0;points=[[0,0.5],[1,0.5]];portConstraint=eastwest;whiteSpace=wrap;html=1;fontSize=14;fontFamily=Helvetica;fontColor=default;" parent="Go99mi-lMQuyiL-y5bwb-4" vertex="1">
          <mxGeometry y="336" width="260" height="26" as="geometry" />
        </mxCell>
        <mxCell id="Go99mi-lMQuyiL-y5bwb-7" value="# LaunchMissle(target : Enemy) : void" style="text;strokeColor=none;fillColor=none;align=left;verticalAlign=top;spacingLeft=4;spacingRight=4;overflow=hidden;rotatable=0;points=[[0,0.5],[1,0.5]];portConstraint=eastwest;whiteSpace=wrap;html=1;fontSize=14;fontFamily=Helvetica;fontColor=default;" parent="Go99mi-lMQuyiL-y5bwb-4" vertex="1">
          <mxGeometry y="362" width="260" height="26" as="geometry" />
        </mxCell>
        <mxCell id="Go99mi-lMQuyiL-y5bwb-12" value="&amp;lt;&amp;lt;abstract&amp;gt;&amp;gt;&lt;br&gt;Missle" style="swimlane;fontStyle=1;align=center;verticalAlign=top;childLayout=stackLayout;horizontal=1;startSize=50;horizontalStack=0;resizeParent=1;resizeParentMax=0;resizeLast=0;collapsible=1;marginBottom=0;whiteSpace=wrap;html=1;fillStyle=auto;strokeColor=default;strokeWidth=2;spacingTop=0;spacingBottom=0;spacing=2;fontFamily=Helvetica;fontSize=14;fontColor=default;fillColor=default;" parent="1" vertex="1">
          <mxGeometry x="265" y="520" width="230" height="240" as="geometry">
            <mxRectangle x="550" y="150" width="80" height="30" as="alternateBounds" />
          </mxGeometry>
        </mxCell>
        <mxCell id="Go99mi-lMQuyiL-y5bwb-32" value="# attackType : AttackType" style="text;strokeColor=none;fillColor=none;align=left;verticalAlign=top;spacingLeft=4;spacingRight=4;overflow=hidden;rotatable=0;points=[[0,0.5],[1,0.5]];portConstraint=eastwest;whiteSpace=wrap;html=1;fontSize=14;fontFamily=Helvetica;fontColor=default;" parent="Go99mi-lMQuyiL-y5bwb-12" vertex="1">
          <mxGeometry y="50" width="230" height="26" as="geometry" />
        </mxCell>
        <mxCell id="Go99mi-lMQuyiL-y5bwb-59" value="# atk : float" style="text;strokeColor=none;fillColor=none;align=left;verticalAlign=top;spacingLeft=4;spacingRight=4;overflow=hidden;rotatable=0;points=[[0,0.5],[1,0.5]];portConstraint=eastwest;whiteSpace=wrap;html=1;fontSize=14;fontFamily=Helvetica;fontColor=default;" parent="Go99mi-lMQuyiL-y5bwb-12" vertex="1">
          <mxGeometry y="76" width="230" height="26" as="geometry" />
        </mxCell>
        <mxCell id="Go99mi-lMQuyiL-y5bwb-13" value="# moveSpeed : float" style="text;strokeColor=none;fillColor=none;align=left;verticalAlign=top;spacingLeft=4;spacingRight=4;overflow=hidden;rotatable=0;points=[[0,0.5],[1,0.5]];portConstraint=eastwest;whiteSpace=wrap;html=1;fontSize=14;fontFamily=Helvetica;fontColor=default;" parent="Go99mi-lMQuyiL-y5bwb-12" vertex="1">
          <mxGeometry y="102" width="230" height="26" as="geometry" />
        </mxCell>
        <mxCell id="Go99mi-lMQuyiL-y5bwb-16" value="# speed : float" style="text;strokeColor=none;fillColor=none;align=left;verticalAlign=top;spacingLeft=4;spacingRight=4;overflow=hidden;rotatable=0;points=[[0,0.5],[1,0.5]];portConstraint=eastwest;whiteSpace=wrap;html=1;fontSize=14;fontFamily=Helvetica;fontColor=default;" parent="Go99mi-lMQuyiL-y5bwb-12" vertex="1">
          <mxGeometry y="128" width="230" height="26" as="geometry" />
        </mxCell>
        <mxCell id="Go99mi-lMQuyiL-y5bwb-18" value="# target : Enemy" style="text;strokeColor=none;fillColor=none;align=left;verticalAlign=top;spacingLeft=4;spacingRight=4;overflow=hidden;rotatable=0;points=[[0,0.5],[1,0.5]];portConstraint=eastwest;whiteSpace=wrap;html=1;fontSize=14;fontFamily=Helvetica;fontColor=default;" parent="Go99mi-lMQuyiL-y5bwb-12" vertex="1">
          <mxGeometry y="154" width="230" height="26" as="geometry" />
        </mxCell>
        <mxCell id="Go99mi-lMQuyiL-y5bwb-14" value="" style="line;strokeWidth=1;fillColor=none;align=left;verticalAlign=middle;spacingTop=-1;spacingLeft=3;spacingRight=3;rotatable=0;labelPosition=right;points=[];portConstraint=eastwest;strokeColor=inherit;fillStyle=auto;spacingBottom=0;spacing=2;fontFamily=Helvetica;fontSize=14;fontColor=default;html=1;" parent="Go99mi-lMQuyiL-y5bwb-12" vertex="1">
          <mxGeometry y="180" width="230" height="8" as="geometry" />
        </mxCell>
        <mxCell id="Go99mi-lMQuyiL-y5bwb-15" value="# Follow() : void" style="text;strokeColor=none;fillColor=none;align=left;verticalAlign=top;spacingLeft=4;spacingRight=4;overflow=hidden;rotatable=0;points=[[0,0.5],[1,0.5]];portConstraint=eastwest;whiteSpace=wrap;html=1;fontSize=14;fontFamily=Helvetica;fontColor=default;" parent="Go99mi-lMQuyiL-y5bwb-12" vertex="1">
          <mxGeometry y="188" width="230" height="26" as="geometry" />
        </mxCell>
        <mxCell id="Go99mi-lMQuyiL-y5bwb-53" value="# Attack(atk : float) : void" style="text;strokeColor=none;fillColor=none;align=left;verticalAlign=top;spacingLeft=4;spacingRight=4;overflow=hidden;rotatable=0;points=[[0,0.5],[1,0.5]];portConstraint=eastwest;whiteSpace=wrap;html=1;fontSize=14;fontFamily=Helvetica;fontColor=default;" parent="Go99mi-lMQuyiL-y5bwb-12" vertex="1">
          <mxGeometry y="214" width="230" height="26" as="geometry" />
        </mxCell>
        <mxCell id="Go99mi-lMQuyiL-y5bwb-22" value="«enum»&lt;br&gt;&lt;b&gt;TowerType&lt;/b&gt;&lt;br&gt;&lt;br&gt;1,&lt;br&gt;2,&lt;br&gt;3,&lt;br&gt;..." style="html=1;whiteSpace=wrap;fillStyle=auto;strokeColor=default;strokeWidth=2;align=center;verticalAlign=top;spacingTop=0;spacingBottom=0;spacing=2;fontFamily=Helvetica;fontSize=14;fontColor=default;fillColor=default;" parent="1" vertex="1">
          <mxGeometry x="50" y="80" width="180" height="140" as="geometry" />
        </mxCell>
        <mxCell id="Go99mi-lMQuyiL-y5bwb-27" value="EnemyController" style="swimlane;fontStyle=1;align=center;verticalAlign=top;childLayout=stackLayout;horizontal=1;startSize=26;horizontalStack=0;resizeParent=1;resizeParentMax=0;resizeLast=0;collapsible=1;marginBottom=0;whiteSpace=wrap;html=1;fillStyle=auto;strokeColor=default;strokeWidth=2;spacingTop=0;spacingBottom=0;spacing=2;fontFamily=Helvetica;fontSize=14;fontColor=default;fillColor=default;" parent="1" vertex="1">
          <mxGeometry x="720" y="700" width="270" height="216" as="geometry" />
        </mxCell>
        <mxCell id="gAw4fXE5N5joj9is8AC2-31" value="+ hpValue {get; set;}" style="text;strokeColor=none;fillColor=none;align=left;verticalAlign=top;spacingLeft=4;spacingRight=4;overflow=hidden;rotatable=0;points=[[0,0.5],[1,0.5]];portConstraint=eastwest;whiteSpace=wrap;html=1;fontSize=14;fontFamily=Helvetica;fontColor=default;" vertex="1" parent="Go99mi-lMQuyiL-y5bwb-27">
          <mxGeometry y="26" width="270" height="26" as="geometry" />
        </mxCell>
        <mxCell id="Go99mi-lMQuyiL-y5bwb-28" value="- path : Queue&amp;lt;int[,]&amp;gt;" style="text;strokeColor=none;fillColor=none;align=left;verticalAlign=top;spacingLeft=4;spacingRight=4;overflow=hidden;rotatable=0;points=[[0,0.5],[1,0.5]];portConstraint=eastwest;whiteSpace=wrap;html=1;fontSize=14;fontFamily=Helvetica;fontColor=default;" parent="Go99mi-lMQuyiL-y5bwb-27" vertex="1">
          <mxGeometry y="52" width="270" height="26" as="geometry" />
        </mxCell>
        <mxCell id="Go99mi-lMQuyiL-y5bwb-52" value="- speed : float" style="text;strokeColor=none;fillColor=none;align=left;verticalAlign=top;spacingLeft=4;spacingRight=4;overflow=hidden;rotatable=0;points=[[0,0.5],[1,0.5]];portConstraint=eastwest;whiteSpace=wrap;html=1;fontSize=14;fontFamily=Helvetica;fontColor=default;" parent="Go99mi-lMQuyiL-y5bwb-27" vertex="1">
          <mxGeometry y="78" width="270" height="26" as="geometry" />
        </mxCell>
        <mxCell id="gAw4fXE5N5joj9is8AC2-1" value="- hp : float" style="text;strokeColor=none;fillColor=none;align=left;verticalAlign=top;spacingLeft=4;spacingRight=4;overflow=hidden;rotatable=0;points=[[0,0.5],[1,0.5]];portConstraint=eastwest;whiteSpace=wrap;html=1;fontSize=14;fontFamily=Helvetica;fontColor=default;" vertex="1" parent="Go99mi-lMQuyiL-y5bwb-27">
          <mxGeometry y="104" width="270" height="26" as="geometry" />
        </mxCell>
        <mxCell id="Go99mi-lMQuyiL-y5bwb-29" value="" style="line;strokeWidth=1;fillColor=none;align=left;verticalAlign=middle;spacingTop=-1;spacingLeft=3;spacingRight=3;rotatable=0;labelPosition=right;points=[];portConstraint=eastwest;strokeColor=inherit;fillStyle=auto;spacingBottom=0;spacing=2;fontFamily=Helvetica;fontSize=14;fontColor=default;html=1;" parent="Go99mi-lMQuyiL-y5bwb-27" vertex="1">
          <mxGeometry y="130" width="270" height="8" as="geometry" />
        </mxCell>
        <mxCell id="Go99mi-lMQuyiL-y5bwb-30" value="- Move(nextPos : int[,]) : void" style="text;strokeColor=none;fillColor=none;align=left;verticalAlign=top;spacingLeft=4;spacingRight=4;overflow=hidden;rotatable=0;points=[[0,0.5],[1,0.5]];portConstraint=eastwest;whiteSpace=wrap;html=1;fontSize=14;fontFamily=Helvetica;fontColor=default;" parent="Go99mi-lMQuyiL-y5bwb-27" vertex="1">
          <mxGeometry y="138" width="270" height="26" as="geometry" />
        </mxCell>
        <mxCell id="gAw4fXE5N5joj9is8AC2-2" value="- DepleteHp(float amount) : void" style="text;strokeColor=none;fillColor=none;align=left;verticalAlign=top;spacingLeft=4;spacingRight=4;overflow=hidden;rotatable=0;points=[[0,0.5],[1,0.5]];portConstraint=eastwest;whiteSpace=wrap;html=1;fontSize=14;fontFamily=Helvetica;fontColor=default;" vertex="1" parent="Go99mi-lMQuyiL-y5bwb-27">
          <mxGeometry y="164" width="270" height="26" as="geometry" />
        </mxCell>
        <mxCell id="Go99mi-lMQuyiL-y5bwb-79" value="- Die() : void" style="text;strokeColor=none;fillColor=none;align=left;verticalAlign=top;spacingLeft=4;spacingRight=4;overflow=hidden;rotatable=0;points=[[0,0.5],[1,0.5]];portConstraint=eastwest;whiteSpace=wrap;html=1;fontSize=14;fontFamily=Helvetica;fontColor=default;" parent="Go99mi-lMQuyiL-y5bwb-27" vertex="1">
          <mxGeometry y="190" width="270" height="26" as="geometry" />
        </mxCell>
        <mxCell id="Go99mi-lMQuyiL-y5bwb-31" value="«enum»&lt;br&gt;&lt;b&gt;AttackType&lt;/b&gt;&lt;br&gt;&lt;br&gt;Normal,&lt;br&gt;Splash,&lt;br&gt;??" style="html=1;whiteSpace=wrap;fillStyle=auto;strokeColor=default;strokeWidth=2;align=center;verticalAlign=top;spacingTop=0;spacingBottom=0;spacing=2;fontFamily=Helvetica;fontSize=14;fontColor=default;fillColor=default;" parent="1" vertex="1">
          <mxGeometry x="50" y="230" width="180" height="140" as="geometry" />
        </mxCell>
        <mxCell id="Go99mi-lMQuyiL-y5bwb-34" value="PathFinder" style="swimlane;fontStyle=1;align=center;verticalAlign=top;childLayout=stackLayout;horizontal=1;startSize=26;horizontalStack=0;resizeParent=1;resizeParentMax=0;resizeLast=0;collapsible=1;marginBottom=0;whiteSpace=wrap;html=1;fillStyle=auto;strokeColor=default;strokeWidth=2;spacingTop=0;spacingBottom=0;spacing=2;fontFamily=Helvetica;fontSize=14;fontColor=default;fillColor=default;" parent="1" vertex="1">
          <mxGeometry x="720" y="480" width="270" height="130" as="geometry" />
        </mxCell>
        <mxCell id="Go99mi-lMQuyiL-y5bwb-35" value="- mapInfo : int[,]" style="text;strokeColor=none;fillColor=none;align=left;verticalAlign=top;spacingLeft=4;spacingRight=4;overflow=hidden;rotatable=0;points=[[0,0.5],[1,0.5]];portConstraint=eastwest;whiteSpace=wrap;html=1;fontSize=14;fontFamily=Helvetica;fontColor=default;" parent="Go99mi-lMQuyiL-y5bwb-34" vertex="1">
          <mxGeometry y="26" width="270" height="22" as="geometry" />
        </mxCell>
        <mxCell id="Go99mi-lMQuyiL-y5bwb-38" value="- path : Queue&amp;lt;int[,]&amp;gt;" style="text;strokeColor=none;fillColor=none;align=left;verticalAlign=top;spacingLeft=4;spacingRight=4;overflow=hidden;rotatable=0;points=[[0,0.5],[1,0.5]];portConstraint=eastwest;whiteSpace=wrap;html=1;fontSize=14;fontFamily=Helvetica;fontColor=default;" parent="Go99mi-lMQuyiL-y5bwb-34" vertex="1">
          <mxGeometry y="48" width="270" height="22" as="geometry" />
        </mxCell>
        <mxCell id="Go99mi-lMQuyiL-y5bwb-36" value="" style="line;strokeWidth=1;fillColor=none;align=left;verticalAlign=middle;spacingTop=-1;spacingLeft=3;spacingRight=3;rotatable=0;labelPosition=right;points=[];portConstraint=eastwest;strokeColor=inherit;fillStyle=auto;spacingBottom=0;spacing=2;fontFamily=Helvetica;fontSize=14;fontColor=default;html=1;" parent="Go99mi-lMQuyiL-y5bwb-34" vertex="1">
          <mxGeometry y="70" width="270" height="8" as="geometry" />
        </mxCell>
        <mxCell id="Go99mi-lMQuyiL-y5bwb-37" value="+ RefreshMapInfo() : void" style="text;strokeColor=none;fillColor=none;align=left;verticalAlign=top;spacingLeft=4;spacingRight=4;overflow=hidden;rotatable=0;points=[[0,0.5],[1,0.5]];portConstraint=eastwest;whiteSpace=wrap;html=1;fontSize=14;fontFamily=Helvetica;fontColor=default;" parent="Go99mi-lMQuyiL-y5bwb-34" vertex="1">
          <mxGeometry y="78" width="270" height="26" as="geometry" />
        </mxCell>
        <mxCell id="Go99mi-lMQuyiL-y5bwb-48" value="+ PathFinding(mapInfo : int[,]) : bool" style="text;strokeColor=none;fillColor=none;align=left;verticalAlign=top;spacingLeft=4;spacingRight=4;overflow=hidden;rotatable=0;points=[[0,0.5],[1,0.5]];portConstraint=eastwest;whiteSpace=wrap;html=1;fontSize=14;fontFamily=Helvetica;fontColor=default;" parent="Go99mi-lMQuyiL-y5bwb-34" vertex="1">
          <mxGeometry y="104" width="270" height="26" as="geometry" />
        </mxCell>
        <mxCell id="Go99mi-lMQuyiL-y5bwb-40" value="GameManager" style="swimlane;fontStyle=1;align=center;verticalAlign=top;childLayout=stackLayout;horizontal=1;startSize=26;horizontalStack=0;resizeParent=1;resizeParentMax=0;resizeLast=0;collapsible=1;marginBottom=0;whiteSpace=wrap;html=1;fillStyle=auto;strokeColor=default;strokeWidth=2;spacingTop=0;spacingBottom=0;spacing=2;fontFamily=Helvetica;fontSize=14;fontColor=default;fillColor=default;" parent="1" vertex="1">
          <mxGeometry x="720" y="80" width="340" height="268" as="geometry" />
        </mxCell>
        <mxCell id="Go99mi-lMQuyiL-y5bwb-45" value="- initialGold : int" style="text;strokeColor=none;fillColor=none;align=left;verticalAlign=top;spacingLeft=4;spacingRight=4;overflow=hidden;rotatable=0;points=[[0,0.5],[1,0.5]];portConstraint=eastwest;whiteSpace=wrap;html=1;fontSize=14;fontFamily=Helvetica;fontColor=default;" parent="Go99mi-lMQuyiL-y5bwb-40" vertex="1">
          <mxGeometry y="26" width="340" height="26" as="geometry" />
        </mxCell>
        <mxCell id="Go99mi-lMQuyiL-y5bwb-55" value="- gold : int" style="text;strokeColor=none;fillColor=none;align=left;verticalAlign=top;spacingLeft=4;spacingRight=4;overflow=hidden;rotatable=0;points=[[0,0.5],[1,0.5]];portConstraint=eastwest;whiteSpace=wrap;html=1;fontSize=14;fontFamily=Helvetica;fontColor=default;" parent="Go99mi-lMQuyiL-y5bwb-40" vertex="1">
          <mxGeometry y="52" width="340" height="26" as="geometry" />
        </mxCell>
        <mxCell id="Go99mi-lMQuyiL-y5bwb-41" value="- canStartRound : bool" style="text;strokeColor=none;fillColor=none;align=left;verticalAlign=top;spacingLeft=4;spacingRight=4;overflow=hidden;rotatable=0;points=[[0,0.5],[1,0.5]];portConstraint=eastwest;whiteSpace=wrap;html=1;fontSize=14;fontFamily=Helvetica;fontColor=default;" parent="Go99mi-lMQuyiL-y5bwb-40" vertex="1">
          <mxGeometry y="78" width="340" height="26" as="geometry" />
        </mxCell>
        <mxCell id="gAw4fXE5N5joj9is8AC2-27" value="- TowersInField : Dictionary&amp;lt;int, List&amp;lt;Tower&amp;gt;&amp;gt;" style="text;strokeColor=none;fillColor=none;align=left;verticalAlign=top;spacingLeft=4;spacingRight=4;overflow=hidden;rotatable=0;points=[[0,0.5],[1,0.5]];portConstraint=eastwest;whiteSpace=wrap;html=1;fontSize=14;fontFamily=Helvetica;fontColor=default;" vertex="1" parent="Go99mi-lMQuyiL-y5bwb-40">
          <mxGeometry y="104" width="340" height="26" as="geometry" />
        </mxCell>
        <mxCell id="Go99mi-lMQuyiL-y5bwb-42" value="" style="line;strokeWidth=1;fillColor=none;align=left;verticalAlign=middle;spacingTop=-1;spacingLeft=3;spacingRight=3;rotatable=0;labelPosition=right;points=[];portConstraint=eastwest;strokeColor=inherit;fillStyle=auto;spacingBottom=0;spacing=2;fontFamily=Helvetica;fontSize=14;fontColor=default;html=1;" parent="Go99mi-lMQuyiL-y5bwb-40" vertex="1">
          <mxGeometry y="130" width="340" height="8" as="geometry" />
        </mxCell>
        <mxCell id="Go99mi-lMQuyiL-y5bwb-43" value="- GameStart() : void" style="text;strokeColor=none;fillColor=none;align=left;verticalAlign=top;spacingLeft=4;spacingRight=4;overflow=hidden;rotatable=0;points=[[0,0.5],[1,0.5]];portConstraint=eastwest;whiteSpace=wrap;html=1;fontSize=14;fontFamily=Helvetica;fontColor=default;" parent="Go99mi-lMQuyiL-y5bwb-40" vertex="1">
          <mxGeometry y="138" width="340" height="26" as="geometry" />
        </mxCell>
        <mxCell id="Go99mi-lMQuyiL-y5bwb-49" value="- GameOver() : void" style="text;strokeColor=none;fillColor=none;align=left;verticalAlign=top;spacingLeft=4;spacingRight=4;overflow=hidden;rotatable=0;points=[[0,0.5],[1,0.5]];portConstraint=eastwest;whiteSpace=wrap;html=1;fontSize=14;fontFamily=Helvetica;fontColor=default;" parent="Go99mi-lMQuyiL-y5bwb-40" vertex="1">
          <mxGeometry y="164" width="340" height="26" as="geometry" />
        </mxCell>
        <mxCell id="Go99mi-lMQuyiL-y5bwb-50" value="- GameClear() : void" style="text;strokeColor=none;fillColor=none;align=left;verticalAlign=top;spacingLeft=4;spacingRight=4;overflow=hidden;rotatable=0;points=[[0,0.5],[1,0.5]];portConstraint=eastwest;whiteSpace=wrap;html=1;fontSize=14;fontFamily=Helvetica;fontColor=default;" parent="Go99mi-lMQuyiL-y5bwb-40" vertex="1">
          <mxGeometry y="190" width="340" height="26" as="geometry" />
        </mxCell>
        <mxCell id="Go99mi-lMQuyiL-y5bwb-65" value="- Pause() : void" style="text;strokeColor=none;fillColor=none;align=left;verticalAlign=top;spacingLeft=4;spacingRight=4;overflow=hidden;rotatable=0;points=[[0,0.5],[1,0.5]];portConstraint=eastwest;whiteSpace=wrap;html=1;fontSize=14;fontFamily=Helvetica;fontColor=default;" parent="Go99mi-lMQuyiL-y5bwb-40" vertex="1">
          <mxGeometry y="216" width="340" height="26" as="geometry" />
        </mxCell>
        <mxCell id="Go99mi-lMQuyiL-y5bwb-51" value="- Restart() : void" style="text;strokeColor=none;fillColor=none;align=left;verticalAlign=top;spacingLeft=4;spacingRight=4;overflow=hidden;rotatable=0;points=[[0,0.5],[1,0.5]];portConstraint=eastwest;whiteSpace=wrap;html=1;fontSize=14;fontFamily=Helvetica;fontColor=default;" parent="Go99mi-lMQuyiL-y5bwb-40" vertex="1">
          <mxGeometry y="242" width="340" height="26" as="geometry" />
        </mxCell>
        <mxCell id="Go99mi-lMQuyiL-y5bwb-66" value="NormalMissle" style="swimlane;fontStyle=1;align=center;verticalAlign=top;childLayout=stackLayout;horizontal=1;startSize=26;horizontalStack=0;resizeParent=1;resizeParentMax=0;resizeLast=0;collapsible=1;marginBottom=0;whiteSpace=wrap;html=1;fillStyle=auto;strokeColor=default;strokeWidth=2;spacingTop=0;spacingBottom=0;spacing=2;fontFamily=Helvetica;fontSize=14;fontColor=default;fillColor=default;" parent="1" vertex="1">
          <mxGeometry x="170" y="850" width="160" height="34" as="geometry" />
        </mxCell>
        <mxCell id="Go99mi-lMQuyiL-y5bwb-68" value="" style="line;strokeWidth=1;fillColor=none;align=left;verticalAlign=middle;spacingTop=-1;spacingLeft=3;spacingRight=3;rotatable=0;labelPosition=right;points=[];portConstraint=eastwest;strokeColor=inherit;fillStyle=auto;spacingBottom=0;spacing=2;fontFamily=Helvetica;fontSize=14;fontColor=default;html=1;" parent="Go99mi-lMQuyiL-y5bwb-66" vertex="1">
          <mxGeometry y="26" width="160" height="8" as="geometry" />
        </mxCell>
        <mxCell id="Go99mi-lMQuyiL-y5bwb-70" value="SplashMissle" style="swimlane;fontStyle=1;align=center;verticalAlign=top;childLayout=stackLayout;horizontal=1;startSize=26;horizontalStack=0;resizeParent=1;resizeParentMax=0;resizeLast=0;collapsible=1;marginBottom=0;whiteSpace=wrap;html=1;fillStyle=auto;strokeColor=default;strokeWidth=2;spacingTop=0;spacingBottom=0;spacing=2;fontFamily=Helvetica;fontSize=14;fontColor=default;fillColor=default;" parent="1" vertex="1">
          <mxGeometry x="430" y="850" width="160" height="60" as="geometry" />
        </mxCell>
        <mxCell id="Go99mi-lMQuyiL-y5bwb-71" value="- range : float" style="text;strokeColor=none;fillColor=none;align=left;verticalAlign=top;spacingLeft=4;spacingRight=4;overflow=hidden;rotatable=0;points=[[0,0.5],[1,0.5]];portConstraint=eastwest;whiteSpace=wrap;html=1;fontSize=14;fontFamily=Helvetica;fontColor=default;" parent="Go99mi-lMQuyiL-y5bwb-70" vertex="1">
          <mxGeometry y="26" width="160" height="26" as="geometry" />
        </mxCell>
        <mxCell id="Go99mi-lMQuyiL-y5bwb-72" value="" style="line;strokeWidth=1;fillColor=none;align=left;verticalAlign=middle;spacingTop=-1;spacingLeft=3;spacingRight=3;rotatable=0;labelPosition=right;points=[];portConstraint=eastwest;strokeColor=inherit;fillStyle=auto;spacingBottom=0;spacing=2;fontFamily=Helvetica;fontSize=14;fontColor=default;html=1;" parent="Go99mi-lMQuyiL-y5bwb-70" vertex="1">
          <mxGeometry y="52" width="160" height="8" as="geometry" />
        </mxCell>
        <mxCell id="Go99mi-lMQuyiL-y5bwb-76" value="" style="endArrow=block;endSize=16;endFill=0;html=1;rounded=0;fontFamily=Helvetica;fontSize=14;fontColor=default;" parent="1" source="Go99mi-lMQuyiL-y5bwb-66" target="Go99mi-lMQuyiL-y5bwb-12" edge="1">
          <mxGeometry width="160" relative="1" as="geometry">
            <mxPoint x="440" y="660" as="sourcePoint" />
            <mxPoint x="600" y="660" as="targetPoint" />
          </mxGeometry>
        </mxCell>
        <mxCell id="Go99mi-lMQuyiL-y5bwb-78" value="" style="endArrow=block;endSize=16;endFill=0;html=1;rounded=0;fontFamily=Helvetica;fontSize=14;fontColor=default;" parent="1" source="Go99mi-lMQuyiL-y5bwb-70" target="Go99mi-lMQuyiL-y5bwb-12" edge="1">
          <mxGeometry width="160" relative="1" as="geometry">
            <mxPoint x="282" y="860" as="sourcePoint" />
            <mxPoint x="328" y="770" as="targetPoint" />
          </mxGeometry>
        </mxCell>
        <mxCell id="gAw4fXE5N5joj9is8AC2-10" value="EnemyData" style="swimlane;fontStyle=1;align=center;verticalAlign=top;childLayout=stackLayout;horizontal=1;startSize=26;horizontalStack=0;resizeParent=1;resizeParentMax=0;resizeLast=0;collapsible=1;marginBottom=0;whiteSpace=wrap;html=1;fillStyle=auto;strokeColor=default;strokeWidth=2;spacingTop=0;spacingBottom=0;spacing=2;fontFamily=Helvetica;fontSize=14;fontColor=default;fillColor=default;" vertex="1" parent="1">
          <mxGeometry x="775" y="1160" width="160" height="164" as="geometry" />
        </mxCell>
        <mxCell id="gAw4fXE5N5joj9is8AC2-11" value="+ round : int" style="text;strokeColor=none;fillColor=none;align=left;verticalAlign=top;spacingLeft=4;spacingRight=4;overflow=hidden;rotatable=0;points=[[0,0.5],[1,0.5]];portConstraint=eastwest;whiteSpace=wrap;html=1;fontSize=14;fontFamily=Helvetica;fontColor=default;" vertex="1" parent="gAw4fXE5N5joj9is8AC2-10">
          <mxGeometry y="26" width="160" height="26" as="geometry" />
        </mxCell>
        <mxCell id="gAw4fXE5N5joj9is8AC2-14" value="+ speed : float" style="text;strokeColor=none;fillColor=none;align=left;verticalAlign=top;spacingLeft=4;spacingRight=4;overflow=hidden;rotatable=0;points=[[0,0.5],[1,0.5]];portConstraint=eastwest;whiteSpace=wrap;html=1;fontSize=14;fontFamily=Helvetica;fontColor=default;" vertex="1" parent="gAw4fXE5N5joj9is8AC2-10">
          <mxGeometry y="52" width="160" height="26" as="geometry" />
        </mxCell>
        <mxCell id="gAw4fXE5N5joj9is8AC2-15" value="+ hp : int&lt;br&gt;" style="text;strokeColor=none;fillColor=none;align=left;verticalAlign=top;spacingLeft=4;spacingRight=4;overflow=hidden;rotatable=0;points=[[0,0.5],[1,0.5]];portConstraint=eastwest;whiteSpace=wrap;html=1;fontSize=14;fontFamily=Helvetica;fontColor=default;" vertex="1" parent="gAw4fXE5N5joj9is8AC2-10">
          <mxGeometry y="78" width="160" height="26" as="geometry" />
        </mxCell>
        <mxCell id="gAw4fXE5N5joj9is8AC2-16" value="+ sprite : Sprite" style="text;strokeColor=none;fillColor=none;align=left;verticalAlign=top;spacingLeft=4;spacingRight=4;overflow=hidden;rotatable=0;points=[[0,0.5],[1,0.5]];portConstraint=eastwest;whiteSpace=wrap;html=1;fontSize=14;fontFamily=Helvetica;fontColor=default;" vertex="1" parent="gAw4fXE5N5joj9is8AC2-10">
          <mxGeometry y="104" width="160" height="26" as="geometry" />
        </mxCell>
        <mxCell id="gAw4fXE5N5joj9is8AC2-17" value="+ animator : Animator" style="text;strokeColor=none;fillColor=none;align=left;verticalAlign=top;spacingLeft=4;spacingRight=4;overflow=hidden;rotatable=0;points=[[0,0.5],[1,0.5]];portConstraint=eastwest;whiteSpace=wrap;html=1;fontSize=14;fontFamily=Helvetica;fontColor=default;" vertex="1" parent="gAw4fXE5N5joj9is8AC2-10">
          <mxGeometry y="130" width="160" height="26" as="geometry" />
        </mxCell>
        <mxCell id="gAw4fXE5N5joj9is8AC2-12" value="" style="line;strokeWidth=1;fillColor=none;align=left;verticalAlign=middle;spacingTop=-1;spacingLeft=3;spacingRight=3;rotatable=0;labelPosition=right;points=[];portConstraint=eastwest;strokeColor=inherit;fillStyle=auto;spacingBottom=0;spacing=2;fontFamily=Helvetica;fontSize=14;fontColor=default;startSize=50;html=1;" vertex="1" parent="gAw4fXE5N5joj9is8AC2-10">
          <mxGeometry y="156" width="160" height="8" as="geometry" />
        </mxCell>
        <mxCell id="gAw4fXE5N5joj9is8AC2-21" value="RoundEnemyData" style="swimlane;fontStyle=1;align=center;verticalAlign=top;childLayout=stackLayout;horizontal=1;startSize=26;horizontalStack=0;resizeParent=1;resizeParentMax=0;resizeLast=0;collapsible=1;marginBottom=0;whiteSpace=wrap;html=1;fillStyle=auto;strokeColor=default;strokeWidth=2;spacingTop=0;spacingBottom=0;spacing=2;fontFamily=Helvetica;fontSize=14;fontColor=default;fillColor=default;" vertex="1" parent="1">
          <mxGeometry x="690" y="990" width="330" height="86" as="geometry" />
        </mxCell>
        <mxCell id="gAw4fXE5N5joj9is8AC2-22" value="+ enemyDataList : List&amp;lt;EnemyData&amp;gt;" style="text;strokeColor=none;fillColor=none;align=left;verticalAlign=top;spacingLeft=4;spacingRight=4;overflow=hidden;rotatable=0;points=[[0,0.5],[1,0.5]];portConstraint=eastwest;whiteSpace=wrap;html=1;fontSize=14;fontFamily=Helvetica;fontColor=default;" vertex="1" parent="gAw4fXE5N5joj9is8AC2-21">
          <mxGeometry y="26" width="330" height="26" as="geometry" />
        </mxCell>
        <mxCell id="gAw4fXE5N5joj9is8AC2-23" value="" style="line;strokeWidth=1;fillColor=none;align=left;verticalAlign=middle;spacingTop=-1;spacingLeft=3;spacingRight=3;rotatable=0;labelPosition=right;points=[];portConstraint=eastwest;strokeColor=inherit;fillStyle=auto;spacingBottom=0;spacing=2;fontFamily=Helvetica;fontSize=14;fontColor=default;startSize=50;html=1;" vertex="1" parent="gAw4fXE5N5joj9is8AC2-21">
          <mxGeometry y="52" width="330" height="8" as="geometry" />
        </mxCell>
        <mxCell id="gAw4fXE5N5joj9is8AC2-24" value="+ method(type): type" style="text;strokeColor=none;fillColor=none;align=left;verticalAlign=top;spacingLeft=4;spacingRight=4;overflow=hidden;rotatable=0;points=[[0,0.5],[1,0.5]];portConstraint=eastwest;whiteSpace=wrap;html=1;fontSize=14;fontFamily=Helvetica;fontColor=default;" vertex="1" parent="gAw4fXE5N5joj9is8AC2-21">
          <mxGeometry y="60" width="330" height="26" as="geometry" />
        </mxCell>
        <mxCell id="gAw4fXE5N5joj9is8AC2-25" value="" style="endArrow=classic;html=1;rounded=0;fontFamily=Helvetica;fontSize=14;fontColor=default;startSize=50;" edge="1" parent="1" source="gAw4fXE5N5joj9is8AC2-21" target="gAw4fXE5N5joj9is8AC2-10">
          <mxGeometry width="50" height="50" relative="1" as="geometry">
            <mxPoint x="590" y="980" as="sourcePoint" />
            <mxPoint x="640" y="930" as="targetPoint" />
          </mxGeometry>
        </mxCell>
        <mxCell id="gAw4fXE5N5joj9is8AC2-26" value="" style="endArrow=classic;html=1;rounded=0;fontFamily=Helvetica;fontSize=14;fontColor=default;startSize=50;entryX=0.473;entryY=0;entryDx=0;entryDy=0;entryPerimeter=0;" edge="1" parent="1" source="Go99mi-lMQuyiL-y5bwb-79" target="gAw4fXE5N5joj9is8AC2-21">
          <mxGeometry width="50" height="50" relative="1" as="geometry">
            <mxPoint x="865" y="1086" as="sourcePoint" />
            <mxPoint x="865" y="1170" as="targetPoint" />
          </mxGeometry>
        </mxCell>
      </root>
    </mxGraphModel>
  </diagram>
</mxfile>
